#!OML:ASF E:/inclinewalkrobotboard/Project1/Captureday1/Session1/subject1.ASF
:FULLY-SPECIFIED
:DEGREES
288
root 0 0 0 -1.293998207331006 -1.1399911239288227 -3.9430604474405064
lowerback 20.451822046283894 2.68795507574988 -0.5766261718523986
upperback 2.388831884432512 3.6113784729392817 -0.07450928932616552
thorax -8.853847151499874 1.7587427028617832 -0.37611611354922436
lowerneck -7.5513115462398535 -5.987383161924122 -1.0098127572905606
upperneck 1.396504666645047 -8.553218575913295 5.096182049742885
head 2.098099017496126 -3.9364176390670496 1.2107126674261177
rclavicle 1.7404858411155576E-15 -7.199030098910139E-16
rhumerus 29.958898090352967 -10.931164712689295 -34.86595377669703
rradius 136.84908724214884
rwrist -15.534069569337014
rhand -19.664676812304563 -29.56196232603016
rfingers 7.125019999999967
rthumb 6.687157156911153 -59.40462141632812
lclavicle -4.3584072267272116E-16 -8.674371211389047E-17
lhumerus -47.11046131690243 -6.2208356530417666 79.81075789894344
lradius 61.92357743380177
lwrist 10.96848330555288
lhand -14.707012678275907 -19.5125673265264
lfingers 7.125019999999859
lthumb 11.366265013124968 10.282712801877198
rfemur -23.426313689148547 4.093029991727134 30.746970090031237
rtibia 56.930816500441054
rfoot -7.596384804958992 -6.8479353693754526
rtoes 9.884718469130469
lfemur -13.09257466898697 0.17090207856690176 -19.22203261203513
ltibia 49.68697350295331
lfoot 4.840723909880712 -11.899131529429589
ltoes 3.8181278537045316
289
root 0 0 0 -1.2444221058582614 -1.0841079803691822 -3.951599853763655
lowerback 20.48097883862156 2.639121684952565 -0.6674291077535066
upperback 2.397229182370302 3.545422360711548 -0.011723521738921772
thorax -8.859002816078641 1.728489257724641 -0.2519771254765999
lowerneck -7.374459107077504 -5.9855415249215245 -0.9365034112537642
upperneck 1.6580842479079703 -8.536853014623075 4.997258154163445
head 2.1692867170662504 -3.932694512996034 1.167259153867863
rclavicle 1.6554495213857513E-15 -7.042314500994273E-16
rhumerus 29.699552188467557 -11.305321603955907 -34.7329207347387
rradius 136.41129080427564
rwrist -16.0251742749096
rhand -19.534135418998495 -29.84933906036866
rfingers 7.125019999999967
rthumb 6.811346858031575 -59.6851670542149
lclavicle -5.917414307048509E-16 -7.082654281905562E-17
lhumerus -47.0269873261789 -6.330138318446899 80.00000161191198
lradius 61.95352342397014
lwrist 10.93095185498348
lhand -14.632955612506914 -19.63607402641231
lfingers 7.125019999999862
lthumb 11.438473703311693 10.131906723965674
rfemur -23.783797694575206 3.6811336592589456 30.476596776691377
rtibia 58.8283312399689
rfoot -6.978778289574962 -6.277554197283454
rtoes 10.90958967506226
lfemur -12.96283629808877 0.755105327449217 -18.02106929667988
ltibia 54.360348204266316
lfoot 4.568392009758366 -12.097216017509759
ltoes -0.3068210694848119
290
root 0 0 0 -1.2145341066125432 -1.049955912686872 -3.9670851107466234
lowerback 20.46843978292 2.6312176830908327 -0.6840165608540034
upperback 2.3440086417868375 3.536121108885385 -0.007446298505170423
thorax -8.9093537084258 1.7234679649657214 -0.2383012020143355
lowerneck -7.350474783874327 -5.985719771663305 -0.9063486368905038
upperneck 1.5818283490687097 -8.537946440234098 4.97911493906198
head 2.146111067334311 -3.9337572715506637 1.157855610668809
rclavicle 1.1441439770810635E-15 -5.40176787664412E-16
rhumerus 30.645269983671156 -11.084884665741708 -33.52299406344525
rradius 137.99966845807631
rwrist -17.907954833995866
rhand -19.39455360507517 -30.458397793243375
rfingers 7.125019999999967
rthumb 6.94456936826481 -60.28149587681245
lclavicle -8.774078480368411E-16 8.572029093622667E-17
lhumerus -46.91863545884382 -6.46735456249934 80.23396553136372
lradius 62.003681868008584
lwrist 10.876390794051474
lhand -14.537671851745504 -19.84183692702188
lfingers 7.125019999999865
lthumb 11.532133499764118 9.891479422006242
rfemur -23.398349002801382 3.732136283038146 30.574966775199577
rtibia 57.991078012127836
rfoot -7.360877944745494 -6.017732771292855
rtoes 11.635683491336376
lfemur -14.228174990124977 1.6516534005663304 -16.436911264091542
ltibia 59.59546481429581
lfoot 3.3494054197268035 -11.56189944724305
ltoes -4.390846792542682
291
root 0 0 0 -1.2148317605637091 -1.0512474250911472 -3.987880772149795
lowerback 20.409163512509977 2.6845408890001528 -0.5957083879608509
upperback 2.2230609291850807 3.611042620386611 -0.0852288543238714
thorax -9.009073125405576 1.7563842412461534 -0.3806510960715632
lowerneck -7.53367350234198 -5.991196300998764 -0.94449431496756
upperneck 1.0893904838267687 -8.567564506535833 5.082130107525244
head 2.008772520146943 -3.942820216595549 1.199131685619622
rclavicle 3.2333981380196027E-16 -2.418576552054243E-16
rhumerus 32.4605880355434 -10.147717090564523 -31.6253534707415
rradius 141.2055863466756
rwrist -20.689686592194896
rhand -19.256857254982393 -31.20675790057753
rfingers 7.1250199999999655
rthumb 7.076195419396713 -61.01462652837023
lclavicle -1.3176960794918606E-15 3.511875917021965E-16
lhumerus -46.80307249324813 -6.61063836937061 80.47232913087043
lradius 62.07218199910943
lwrist 10.813686028921511
lhand -14.435898605795934 -20.10865558905695
lfingers 7.1250199999998705
lthumb 11.633044779900244 9.588276480668279
rfemur -22.15010030271398 4.326755780822237 31.07239179244723
rtibia 53.60200013066635
rfoot -9.180423537301767 -6.159061638717028
rtoes 11.95139085110181
lfemur -16.893491664549487 2.6093921537721614 -14.971142084548019
ltibia 63.475648628218906
lfoot 1.5129763187647853 -10.367089081235687
ltoes -6.638114771126624
292
root 0 0 0 -1.2489319110664578 -1.098801199562767 -4.007040411164943
lowerback 20.289801931837406 2.793185880178206 -0.4011594354487278
upperback 2.0931019373188264 3.7621107501903293 -0.23481668938021727
thorax -9.086381317880612 1.8234435615517168 -0.6665153077846065
lowerneck -7.887454868016596 -5.997736698757851 -1.0632835548789903
upperneck 0.2917920103874323 -8.615126773791065 5.303870566324707
head 1.7830556114299654 -3.955816682567403 1.291802629016858
rclavicle -4.2863011237087654E-16 1.2863946741468943E-16
rhumerus 34.195013920688496 -8.639902872593995 -29.99941119037407
rradius 144.59984204751146
rwrist -23.145680974277937
rhand -19.142481422962845 -31.727204001943775
rfingers 7.125019999999964
rthumb 7.185628907324281 -61.52386144163746
lclavicle -1.8404090671785743E-15 6.419467169023605E-16
lhumerus -46.740645106176714 -6.708447330665741 80.62297554928192
lradius 62.14055590461709
lwrist 10.76738826094676
lhand -14.359809502217113 -20.33482172329945
lfingers 7.125019999999875
lthumb 11.709804022535412 9.333389058125546
rfemur -19.283684015437412 5.54702063569989 32.04831456948445
rtibia 45.5941447978594
rfoot -12.468653134238583 -6.7132700350507974
rtoes 11.583481316002192
lfemur -19.466340060430298 3.2426163764889906 -14.084763496241159
ltibia 65.11074879676387
lfoot -0.06552203436573123 -9.147350922555095
ltoes -7.0673465486805895
293
root 0 0 0 -1.308790244935722 -1.1820540477364783 -4.013978792559936
lowerback 20.096666794927145 2.9052488812321045 -0.17299251467759902
upperback 2.0652626536895284 3.9178969247994386 -0.38281026213049696
thorax -9.012863612688074 1.8930016444437712 -0.9665405187520214
lowerneck -8.242621092330879 -6.001578048379571 -1.2386244723830464
upperneck -0.4105682936176649 -8.652993564273192 5.562476637080449
head 1.5702612153608184 -3.96554372955201 1.404423576766113
rclavicle -8.121886413480254E-16 3.6328904519782187E-16
rhumerus 35.37709480816995 -6.947875534416466 -29.133352605561363
rradius 147.16435688751108
rwrist -24.532062837977513
rhand -19.068980350225807 -31.817910416590216
rfingers 7.125019999999959
rthumb 7.256642128506739 -61.60901728856689
lclavicle -2.18857024836924E-15 8.112485779255883E-16
lhumerus -46.81130270377145 -6.695681974155157 80.58400663373924
lradius 62.174282155346276
lwrist 10.760044008767732
lhand -14.34367217919023 -20.385705531135446
lfingers 7.125019999999876
lthumb 11.728313290479615 9.27130427653414
rfemur -14.200965975918653 7.203003420690661 33.54667127524899
rtibia 36.59152438866422
rfoot -16.124909982205168 -7.486457849941963
rtoes 10.187002296471054
lfemur -21.11786319139331 3.477489053236616 -13.772183451411552
ltibia 65.03799478544724
lfoot -1.0887105403565158 -8.229873115258421
ltoes -6.6116608966451125
